# xmcd CD database file
#
# Track frame offsets:
#	150
#	14285
#	22395
#	36317
#	56290
#	74395
#	94942
#	111322
#	123165
#	142832
#	166840
#
# Disc length: 2479 seconds
#
# Revision: 0
# Processed by: cddbd v1.4PL0 Copyright (c) Steve Scherf et al.
# Submitted via: CDex 1.50
#
DISCID=9209ad0b
DTITLE=Les Poules - Les Contentes de L'amère Loi
DYEAR=2001
DGENRE=Jazz
TTITLE0=Les siamoises
TTITLE1=Chanson du pain
TTITLE2=En criant su 'I' perron
TTITLE3=Human Pinball
TTITLE4=Au mur la chair
TTITLE5=Soliloque pour Simone
TTITLE6=J'habite à Montréal
TTITLE7=Contentes de L'amère Loi
TTITLE8=Attention !!! travaux
TTITLE9=Faust et son pain
TTITLE10=Ode au parachute
EXTD=YEAR: 2001
EXTT0=
EXTT1=
EXTT2=
EXTT3=
EXTT4=
EXTT5=
EXTT6=
EXTT7=
EXTT8=
EXTT9=
EXTT10=
PLAYORDER=
